<svg width="154" height="22" viewBox="0 0 154 22" fill="none" xmlns="http://www.w3.org/2000/svg">
<g id="Click-Story logo" clip-path="url(#clip0_556_227)">
<g id="Group">
<g id="Group_2" opacity="0.4">
<path id="Vector" d="M11.3924 17.1592C10.8901 17.1592 10.639 16.7957 10.796 16.3413L13.0875 10.1919C13.2445 9.73753 13.7781 9.37402 14.2804 9.37402H27.2763C27.7785 9.37402 28.0297 9.73753 27.8727 10.1919L25.5812 16.3413C25.4242 16.7957 24.8906 17.1592 24.3883 17.1592H11.3924Z" fill="url(#paint0_linear_556_227)"/>
</g>
<path id="Vector_2" opacity="0.5" d="M19.0521 12.2822C19.0521 12.2822 11.5183 14.433 10.8904 16.2203C10.2626 18.0075 12.3344 12.2822 12.3344 12.2822H19.0521Z" fill="url(#paint1_linear_556_227)"/>
<g id="Group_3" opacity="0.9">
<path id="Vector_3" d="M6.08771 12.2823C5.58546 12.2823 5.33433 11.9188 5.49128 11.4644L7.81422 5.31497C7.97118 4.86058 8.50482 4.49707 9.00708 4.49707H22.003C22.5052 4.49707 22.7564 4.86058 22.5994 5.31497L20.2765 11.4644C20.1195 11.9188 19.5859 12.2823 19.0836 12.2823H6.08771Z" fill="url(#paint2_linear_556_227)"/>
</g>
<g id="Group_4" opacity="0.76">
<path id="Vector_4" d="M1.12775 7.31448C0.625495 7.31448 0.374367 6.95096 0.531322 6.49658L2.85426 0.377471C3.01122 -0.0769185 3.54486 -0.44043 4.04712 -0.44043H17.043C17.5453 -0.44043 17.7964 -0.0769185 17.6394 0.377471L15.3165 6.52687C15.1596 6.98126 14.6259 7.34477 14.1236 7.34477H1.12775V7.31448Z" fill="url(#paint3_linear_556_227)"/>
</g>
<path id="Vector_5" opacity="0.76" d="M13.9353 7.31445C13.9353 7.31445 6.21309 9.52581 5.58527 11.3131C4.95745 13.1003 7.06065 7.31445 7.06065 7.31445H13.9353Z" fill="url(#paint4_linear_556_227)"/>
<path id="Vector_6" d="M41.4024 16.9175C39.7701 16.9175 38.3261 16.3419 37.1646 15.2211C36.0032 14.1003 35.4067 12.7371 35.4067 11.1316C35.4067 9.55637 36.0032 8.16291 37.1646 7.04209C38.3261 5.92126 39.7387 5.3457 41.4024 5.3457C43.0348 5.3457 44.4788 5.92126 45.6402 7.04209C45.86 7.25414 45.9541 7.46619 45.9541 7.76911C45.9541 8.07204 45.86 8.28409 45.6402 8.49613C45.4205 8.70818 45.2007 8.79906 44.8868 8.79906C44.6043 8.79906 44.3532 8.70818 44.1335 8.49613C43.3801 7.76911 42.4697 7.4056 41.4024 7.4056C40.3351 7.4056 39.4248 7.76911 38.6714 8.49613C37.918 9.22316 37.5413 10.1016 37.5413 11.1619C37.5413 12.1918 37.918 13.0703 38.6714 13.7973C39.4248 14.5244 40.3351 14.8879 41.4024 14.8879C42.4697 14.8879 43.3801 14.5244 44.1335 13.7973C44.3532 13.5853 44.5729 13.4944 44.8868 13.4944C45.1694 13.4944 45.4205 13.5853 45.6402 13.7973C45.86 14.0094 45.9541 14.2214 45.9541 14.5244C45.9541 14.797 45.86 15.0393 45.6402 15.2514C44.4788 16.3419 43.0662 16.9175 41.4024 16.9175Z" fill="#333333"/>
<path id="Vector_7" d="M49.3129 16.9175C49.0304 16.9175 48.7793 16.8266 48.5595 16.6145C48.3398 16.4025 48.2456 16.1904 48.2456 15.8875V6.40592C48.2456 6.13329 48.3398 5.89095 48.5595 5.6789C48.7793 5.46685 48.999 5.37598 49.3129 5.37598C49.5954 5.37598 49.8465 5.46685 50.0349 5.6789C50.2546 5.89095 50.3488 6.103 50.3488 6.40592V14.9181H55.8736C56.1561 14.9181 56.4073 15.009 56.627 15.2211C56.8154 15.4331 56.9409 15.6452 56.9409 15.9178C56.9409 16.1904 56.8468 16.4328 56.627 16.6448C56.4073 16.8569 56.1875 16.9478 55.8736 16.9478H49.3129V16.9175Z" fill="#333333"/>
<path id="Vector_8" d="M60.143 16.9175C59.8605 16.9175 59.6093 16.8266 59.3896 16.6145C59.1699 16.4025 59.0757 16.1904 59.0757 15.8875V6.40592C59.0757 6.13329 59.1699 5.89095 59.3896 5.6789C59.6093 5.46685 59.8291 5.37598 60.143 5.37598C60.4255 5.37598 60.6766 5.46685 60.865 5.6789C61.0847 5.89095 61.1789 6.103 61.1789 6.40592V15.9178C61.1789 16.1904 61.0847 16.4328 60.865 16.6448C60.6766 16.8266 60.4255 16.9175 60.143 16.9175Z" fill="#333333"/>
<path id="Vector_9" d="M69.6544 16.9175C68.022 16.9175 66.5781 16.3419 65.4166 15.2211C64.2551 14.1003 63.6587 12.7371 63.6587 11.1316C63.6587 9.55637 64.2551 8.16291 65.4166 7.04209C66.5781 5.92126 67.9907 5.3457 69.6544 5.3457C71.3181 5.3457 72.7307 5.92126 73.8922 7.04209C74.1119 7.25414 74.2061 7.46619 74.2061 7.76911C74.2061 8.07204 74.1119 8.28409 73.8922 8.49613C73.6724 8.70818 73.4527 8.79906 73.1388 8.79906C72.8563 8.79906 72.6051 8.70818 72.3854 8.49613C71.632 7.76911 70.7217 7.4056 69.6544 7.4056C68.5871 7.4056 67.6767 7.76911 66.9234 8.49613C66.17 9.22316 65.7933 10.1016 65.7933 11.1619C65.7933 12.1918 66.17 13.0703 66.9234 13.7973C67.6767 14.5244 68.5871 14.8879 69.6544 14.8879C70.7217 14.8879 71.632 14.5244 72.3854 13.7973C72.6051 13.5853 72.8249 13.4944 73.1388 13.4944C73.4213 13.4944 73.6724 13.5853 73.8922 13.7973C74.1119 14.0094 74.2061 14.2214 74.2061 14.5244C74.2061 14.797 74.1119 15.0393 73.8922 15.2514C72.7307 16.3419 71.3181 16.9175 69.6544 16.9175Z" fill="#333333"/>
<path id="Vector_10" d="M85.7582 16.9175C85.3815 16.9175 85.099 16.766 84.8793 16.4631L81.8971 12.1615H78.5697V15.9178C78.5697 16.1904 78.4755 16.4328 78.2557 16.6448C78.036 16.8569 77.8163 16.9478 77.5024 16.9478C77.2198 16.9478 76.9687 16.8569 76.749 16.6448C76.5292 16.4328 76.4351 16.2207 76.4351 15.9178V6.40592C76.4351 6.13329 76.5292 5.89095 76.749 5.6789C76.9687 5.46685 77.1884 5.37598 77.5024 5.37598C77.7849 5.37598 78.036 5.46685 78.2244 5.6789C78.4441 5.89095 78.5383 6.103 78.5383 6.40592V10.1622H81.8657L84.8479 5.86066C85.0048 5.61832 85.2246 5.46685 85.5071 5.43656C85.5699 5.43656 85.6326 5.40627 85.7268 5.40627C85.9466 5.40627 86.1349 5.46685 86.3232 5.58802C86.5744 5.73949 86.6999 5.95154 86.7627 6.22417C86.8255 6.4968 86.7627 6.73914 86.6058 6.98148L83.7178 11.1922L86.6058 15.3725C86.7627 15.6149 86.8255 15.8572 86.7627 16.1298C86.6999 16.4025 86.543 16.6145 86.3232 16.766C86.1663 16.8569 85.9779 16.9175 85.7582 16.9175Z" fill="#333333"/>
<path id="Vector_11" d="M94.328 16.9175C94.0455 16.9175 93.7944 16.8266 93.5747 16.6145C93.3549 16.4025 93.2607 16.1905 93.2607 15.8875C93.2607 15.6149 93.3549 15.3726 93.5747 15.1605C93.7944 14.9485 94.0141 14.8576 94.328 14.8576H100.073C100.449 14.8576 100.795 14.7364 101.077 14.4638C101.36 14.1911 101.485 13.8579 101.485 13.4944C101.485 13.1309 101.328 12.7977 101.077 12.525C100.795 12.2524 100.481 12.1312 100.073 12.1312H96.7765C95.8034 12.1312 94.9872 11.798 94.2966 11.1316C93.606 10.4652 93.2607 9.67754 93.2607 8.73847C93.2607 7.7994 93.606 7.0118 94.2966 6.34536C94.9872 5.67892 95.8034 5.3457 96.7765 5.3457H102.521C102.804 5.3457 103.055 5.43658 103.274 5.64863C103.494 5.86068 103.588 6.07273 103.588 6.37565C103.588 6.67858 103.494 6.89063 103.274 7.10267C103.055 7.31472 102.835 7.4056 102.521 7.4056H96.7765C96.3999 7.4056 96.0545 7.55706 95.772 7.7994C95.4895 8.07204 95.3639 8.37496 95.3639 8.76877C95.3639 9.13228 95.4895 9.4655 95.772 9.73813C96.0545 10.0108 96.3685 10.1319 96.7765 10.1319H100.073C101.046 10.1319 101.862 10.4652 102.552 11.1316C103.243 11.798 103.588 12.5856 103.588 13.5247C103.588 14.4638 103.243 15.2514 102.552 15.9178C101.862 16.5843 101.046 16.9175 100.073 16.9175H94.328Z" fill="#333333"/>
<path id="Vector_12" d="M110.243 16.9175C109.96 16.9175 109.709 16.8266 109.49 16.6145C109.301 16.4328 109.176 16.1905 109.176 15.8875V7.4056H106.131C105.848 7.4056 105.597 7.31472 105.377 7.10267C105.158 6.89063 105.063 6.67858 105.063 6.37565C105.063 6.07273 105.158 5.86068 105.377 5.64863C105.597 5.43658 105.817 5.3457 106.131 5.3457H114.324C114.606 5.3457 114.857 5.43658 115.077 5.64863C115.297 5.86068 115.391 6.07273 115.391 6.37565C115.391 6.67858 115.297 6.89063 115.077 7.10267C114.857 7.31472 114.638 7.4056 114.324 7.4056H111.279V15.9178C111.279 16.1905 111.185 16.4328 110.965 16.6448C110.777 16.8266 110.526 16.9175 110.243 16.9175Z" fill="#333333"/>
<path id="Vector_13" d="M122.894 16.9175C121.261 16.9175 119.849 16.3419 118.656 15.2211C117.494 14.1003 116.898 12.7371 116.898 11.1316C116.898 9.55637 117.494 8.16291 118.656 7.04209C119.817 5.92126 121.23 5.3457 122.894 5.3457C124.526 5.3457 125.97 5.92126 127.131 7.04209C128.293 8.16291 128.889 9.52608 128.889 11.1316C128.889 12.7068 128.293 14.07 127.131 15.2211C125.939 16.3419 124.526 16.9175 122.894 16.9175ZM122.894 7.4056C121.826 7.4056 120.916 7.76911 120.163 8.52643C119.409 9.25345 119.033 10.1319 119.033 11.1619C119.033 12.1918 119.409 13.0703 120.163 13.7973C120.916 14.5244 121.826 14.8879 122.894 14.8879C123.961 14.8879 124.871 14.5244 125.656 13.7973C126.409 13.0703 126.786 12.1918 126.786 11.1619C126.786 10.1319 126.409 9.25345 125.656 8.52643C124.871 7.76911 123.93 7.4056 122.894 7.4056Z" fill="#333333"/>
<path id="Vector_14" d="M140.63 16.9175C140.347 16.9175 140.096 16.8266 139.876 16.6145L136.894 13.7367H133.441V15.8875C133.441 16.1601 133.347 16.4025 133.127 16.6145C132.908 16.8266 132.688 16.9175 132.374 16.9175C132.091 16.9175 131.84 16.8266 131.621 16.6145C131.401 16.4025 131.307 16.1904 131.307 15.8875V6.40592C131.307 6.13329 131.401 5.89095 131.621 5.6789C131.84 5.46685 132.06 5.37598 132.374 5.37598H137.302C138.495 5.37598 139.5 5.76978 140.379 6.61797C141.226 7.43587 141.666 8.40524 141.666 9.58665C141.666 10.3137 141.477 11.0104 141.101 11.6163C140.755 12.2221 140.253 12.7371 139.625 13.1006L139.343 13.2823L141.352 15.1908C141.572 15.4028 141.666 15.6149 141.666 15.9178C141.666 16.1904 141.572 16.4328 141.352 16.6448C141.163 16.8266 140.912 16.9175 140.63 16.9175ZM133.473 11.7071H137.334C137.962 11.7071 138.495 11.4951 138.903 11.071C139.343 10.6469 139.562 10.1319 139.562 9.55636C139.562 8.9505 139.343 8.43553 138.903 8.04173C138.464 7.61763 137.93 7.40558 137.334 7.40558H133.473V11.7071Z" fill="#333333"/>
<path id="Vector_15" d="M148.32 16.9175C148.038 16.9175 147.787 16.8266 147.567 16.6145C147.347 16.4025 147.253 16.1904 147.253 15.8875V13.0097L143.329 6.9209C143.172 6.67856 143.141 6.43622 143.204 6.16358C143.266 5.89095 143.423 5.6789 143.675 5.52744C143.863 5.43656 144.02 5.37598 144.208 5.37598C144.302 5.37598 144.365 5.37598 144.459 5.40627C144.742 5.46685 144.962 5.61832 145.119 5.86066L148.352 10.8286L151.585 5.86066C151.742 5.61832 151.962 5.46685 152.244 5.40627C152.338 5.37598 152.401 5.37598 152.495 5.37598C152.684 5.37598 152.872 5.43656 153.029 5.52744C153.28 5.6789 153.437 5.89095 153.5 6.16358C153.563 6.43622 153.531 6.67856 153.374 6.9209L149.419 13.0097V15.8875C149.419 16.1601 149.325 16.4025 149.105 16.6145C148.885 16.8266 148.634 16.9175 148.32 16.9175Z" fill="#333333"/>
</g>
</g>
<defs>
<linearGradient id="paint0_linear_556_227" x1="29.0585" y1="13.2854" x2="9.78069" y2="13.2854" gradientUnits="userSpaceOnUse">
<stop stop-color="#B3FFC5"/>
<stop offset="1" stop-color="#97DDFA"/>
</linearGradient>
<linearGradient id="paint1_linear_556_227" x1="19.5894" y1="14.4078" x2="10.2913" y2="14.4078" gradientUnits="userSpaceOnUse">
<stop offset="0.00534759" stop-color="#0048B6"/>
<stop offset="0.3572" stop-color="#377ECF"/>
<stop offset="1" stop-color="#97DDFA"/>
</linearGradient>
<linearGradient id="paint2_linear_556_227" x1="23.7511" y1="8.39767" x2="4.47333" y2="8.39767" gradientUnits="userSpaceOnUse">
<stop stop-color="#A9FFCE"/>
<stop offset="1" stop-color="#97DDFA"/>
</linearGradient>
<linearGradient id="paint3_linear_556_227" x1="4.29972" y1="-1.17397" x2="13.528" y2="8.38887" gradientUnits="userSpaceOnUse">
<stop stop-color="#2C95FF"/>
<stop offset="0.0952693" stop-color="#369CFF"/>
<stop offset="1" stop-color="#97DDFA"/>
</linearGradient>
<linearGradient id="paint4_linear_556_227" x1="14.4947" y1="9.48486" x2="4.97151" y2="9.48486" gradientUnits="userSpaceOnUse">
<stop offset="0.00534759" stop-color="#0048B6"/>
<stop offset="0.3572" stop-color="#377ECF"/>
<stop offset="1" stop-color="#97DDFA"/>
</linearGradient>
<clipPath id="clip0_556_227">
<rect width="153" height="22" fill="white" transform="translate(0.5)"/>
</clipPath>
</defs>
</svg>
